<svg width="1024" height="1024" viewBox="0 0 1024 1024" fill="none" xmlns="http://www.w3.org/2000/svg">
<path d="M506.52 218.289C512.265 233.199 518.05 254.59 522.645 270.297C543.06 340.057 557.49 411.594 554.925 484.681C552.23 561.565 521.75 636.95 475.013 697.635C466.697 708.435 454.134 723.695 444.357 733C428.856 728.5 406.861 714.425 393.805 704.9C386.071 698.62 379.136 692.695 372.092 685.705C321.979 635.99 304.655 562.405 325.462 495.085C340.739 445.658 372.975 410.265 406.218 372.169C422.771 353.522 438.604 334.247 453.682 314.388C478.232 281.687 492.271 256.221 506.52 218.289ZM418.091 638.64C422.145 642.815 425.638 646.38 430.099 650.175C433.839 653.35 437.951 656.005 441.59 659.015C449.665 647.49 457.364 636.475 463.959 623.985C503.545 549.005 510.4 461.861 491.842 379.808L491.051 379.332C480.009 388.2 467.901 399.606 457.729 409.436C423.161 442.843 392.157 484.301 386.578 533.495C382.502 569.425 390.132 604.365 413.293 633C414.852 634.915 416.451 636.795 418.091 638.64Z" fill="#115A4D"/>
<path d="M518.855 218.797C519.035 218.834 519.225 218.843 519.405 218.907C522.35 219.977 629.16 356.166 640.55 371.142C649.715 383.189 658.52 395.51 666.945 408.086C681.5 430.193 693.735 451.845 703.395 476.514C744.455 581.365 703.235 693.87 596.135 735.23C561.935 746.74 525.465 749.86 489.804 744.32C480.58 742.965 470.907 740.505 461.634 738.75C466.932 733.505 475.26 722.975 479.965 716.985C506.7 682.945 528.595 646.915 545.405 607.21C588.535 505.33 576.06 399.133 544.68 296.074C537.315 271.894 528.615 242.278 518.855 218.797ZM564.715 672.41C569.415 669.79 575.47 668.14 580.585 666.095C589.48 662.54 596.055 658.675 603.985 653.475C685.745 590.895 660.23 473.841 605.125 402.783C601.87 398.584 590.2 383.537 586.12 381.667C603.615 460.785 606.05 528.32 585.215 607.12C581.485 621.04 577.33 634.84 572.75 648.5C570.43 655.435 566.54 665.545 564.715 672.41Z" fill="#115A4D"/>
</svg>
